# xmcd CD database file
#
# Track frame offsets:
#	150
#	20487
#	40037
#	56612
#	72837
#	89912
#	107692
#	127650
#	149737
#	168300
#	184787
#	202600
#	225550
#	248625
#	267937
#
# Disc length: 3818 seconds
#
# Revision: 2
# Processed by: cddbd v1.5.1PL2 Copyright (c) Steve Scherf et al.
# Submitted via: jetAudio 5
#
DISCID=c90ee80f
DTITLE=杜德伟 - 华纳我爱经典系列 disc 2
DYEAR=1998
DGENRE=Pop
TTITLE0=信自己
TTITLE1=给我吧
TTITLE2=拒绝你捆绑
TTITLE3=让自己快乐
TTITLE4=再战蝙蝠侠
TTITLE5=准我自我
TTITLE6=一人舞会
TTITLE7=安全地爱
TTITLE8=每一分钟
TTITLE9=四十八小时
TTITLE10=十二月之吻
TTITLE11=从新跟她一个
TTITLE12=还是唱下去
TTITLE13=放开我吧
TTITLE14=爱得自然
EXTD=
EXTT0=
EXTT1=
EXTT2=
EXTT3=
EXTT4=
EXTT5=
EXTT6=
EXTT7=
EXTT8=
EXTT9=
EXTT10=
EXTT11=
EXTT12=
EXTT13=
EXTT14=
PLAYORDER=
